<svg xmlns="http://www.w3.org/2000/svg" xmlns:xlink="http://www.w3.org/1999/xlink" viewBox="0 0 389.74 282.39"><defs><style>.cls-1,.cls-10,.cls-5,.cls-7{fill:none;}.cls-2{fill:#f16d20;}.cls-3{fill:#754c28;}.cls-4{fill:#facab6;}.cls-5{stroke:#b45f12;}.cls-10,.cls-5,.cls-7{stroke-miterlimit:10;stroke-width:1.46px;}.cls-6{fill:#221f1f;}.cls-7{stroke:#f27958;}.cls-8{clip-path:url(#clip-path);}.cls-9{fill:#f49eab;}.cls-10{stroke:#984306;}</style><clipPath id="clip-path"><path class="cls-1" d="M40,102.43S16.45,136.86,26.5,189.54s39.57,93.8,116.94,92.84S294,181.72,249.32,98.76L142.43,58.61Z"/></clipPath></defs><title>face_2</title><g id="Layer_2" data-name="Layer 2"><g id="Layer_1-2" data-name="Layer 1"><path class="cls-2" d="M201.84,27.25S216.87,7.74,277.45.7,390,42.09,389.13,56.77s-63.58,52.54-156.26,5.8C232.87,62.57,197.19,39.13,201.84,27.25Z"/><path class="cls-3" d="M184.55,28.72s3.09-10.13,13.49-9.39,12,11.42,6.22,20.28Z"/><path class="cls-4" d="M40,102.43S16.45,136.86,26.5,189.54s39.57,93.8,116.94,92.84S294,181.72,249.32,98.76L142.43,58.61Z"/><path class="cls-2" d="M0,122.54s65.67,13.4,102.33,5.77c0,0,11.24-18.72,14.17-35.54,0,0,19.49,29,22.74,38,0,0,100.34,6.49,121.7,3.26,0,0,15-2.06,13.13-10.38S240.92,18.49,144.75,18.34C45.58,18.19,3.15,75.23,0,122.54Z"/><path class="cls-5" d="M133.7,159s-11.44,24.41-20.23,34.35c0,0,21,8.17,27.67,8"/><path class="cls-6" d="M74.56,171.45c.85,6.94-2.08,13-6.55,13.55s-8.76-4.64-9.6-11.58,2.09-13,6.55-13.55S73.72,164.52,74.56,171.45Z"/><path class="cls-6" d="M208.27,164.32c.85,6.93-2.09,13-6.55,13.54s-8.76-4.65-9.6-11.59,2.09-13,6.55-13.55S207.43,157.37,208.27,164.32Z"/><path class="cls-7" d="M163.56,204.14s16.09,46.22-12.16,55.32c-34.28,11-42.43-41.2-42.43-41.2S146,224.23,163.56,204.14Z"/><g class="cls-8"><path class="cls-9" d="M261,215.06a33.9,33.9,0,1,1-43.41-20.34A33.89,33.89,0,0,1,261,215.06Z"/><path class="cls-9" d="M77.13,217.4a33.89,33.89,0,1,1-43.41-20.34A33.89,33.89,0,0,1,77.13,217.4Z"/></g><path class="cls-10" d="M166,89.5s13.07,26.81,17.13,41.11"/><path class="cls-10" d="M209.44,85s11.89,32.87,14.95,47.53"/><path class="cls-10" d="M70.2,129.8s7.65-28.68,15.08-39.25"/><path class="cls-10" d="M30.58,126.12a155.86,155.86,0,0,1,20.14-37.7"/><path class="cls-10" d="M283.57,62.71s56.36,15.65,103.16-1.29"/><path class="cls-10" d="M294.83,44s71.11,3.55,93.25,18.06"/><path class="cls-10" d="M305.35,23.3s65.5,5.9,83.78,33.47"/></g></g></svg>