<svg xmlns="http://www.w3.org/2000/svg" xmlns:xlink="http://www.w3.org/1999/xlink" viewBox="0 0 293.94 499.53"><defs><style>.cls-1{isolation:isolate;}.cls-2{mix-blend-mode:multiply;}.cls-3{fill:#ababab;}.cls-4{fill:url(#Áåçûìÿííûé_ãðàäèåíò_19);}.cls-5{fill:#fff;opacity:0;}.cls-6{fill:#fbfbfb;opacity:0.03;}.cls-7{fill:#f7f7f7;opacity:0.06;}.cls-8{fill:#f3f3f3;opacity:0.1;}.cls-9{fill:#efefef;opacity:0.13;}.cls-10{fill:#ebebeb;opacity:0.16;}.cls-11{fill:#e6e6e6;opacity:0.19;}.cls-12{fill:#e2e2e2;opacity:0.23;}.cls-13{fill:#dedede;opacity:0.26;}.cls-14{fill:#dadada;opacity:0.29;}.cls-15{fill:#d6d6d6;opacity:0.32;}.cls-16{fill:#d2d2d2;opacity:0.35;}.cls-17{fill:#cecece;opacity:0.39;}.cls-18{fill:#cacaca;opacity:0.42;}.cls-19{fill:#c6c6c6;opacity:0.45;}.cls-20{fill:#c2c2c2;opacity:0.48;}.cls-21{fill:#bdbdbd;opacity:0.52;}.cls-22{fill:#b9b9b9;opacity:0.55;}.cls-23{fill:#b5b5b5;opacity:0.58;}.cls-24{fill:#b1b1b1;opacity:0.61;}.cls-25{fill:#adadad;opacity:0.65;}.cls-26{fill:#a9a9a9;opacity:0.68;}.cls-27{fill:#a5a5a5;opacity:0.71;}.cls-28{fill:#a1a1a1;opacity:0.74;}.cls-29{fill:#9d9d9d;opacity:0.77;}.cls-30{fill:#999;opacity:0.81;}.cls-31{fill:#949494;opacity:0.84;}.cls-32{fill:#909090;opacity:0.87;}.cls-33{fill:#8c8c8c;opacity:0.9;}.cls-34{fill:#888;opacity:0.94;}.cls-35{fill:#848484;opacity:0.97;}.cls-36{fill:gray;}.cls-37{fill:url(#Áåçûìÿííûé_ãðàäèåíò_34);}.cls-38{fill:url(#Áåçûìÿííûé_ãðàäèåíò_45);}.cls-39{fill:#9e9e9e;}.cls-40{fill:#d9d9d9;}.cls-41{fill:url(#Áåçûìÿííûé_ãðàäèåíò_44);}.cls-42{fill:url(#Áåçûìÿííûé_ãðàäèåíò_44-2);}.cls-43{fill:#828282;}.cls-44{fill:url(#Áåçûìÿííûé_ãðàäèåíò_34-2);}.cls-45{fill:url(#Áåçûìÿííûé_ãðàäèåíò_45-2);}.cls-46{fill:url(#Áåçûìÿííûé_ãðàäèåíò_44-3);}.cls-47{fill:url(#Áåçûìÿííûé_ãðàäèåíò_44-4);}</style><linearGradient id="Áåçûìÿííûé_ãðàäèåíò_19" x1="-631.75" y1="279.97" x2="-876.1" y2="524.32" gradientTransform="matrix(1, 0, 0, -1, 900.89, 804.3)" gradientUnits="userSpaceOnUse"><stop offset="0" stop-color="#fafafa"/><stop offset="1" stop-color="#ededed"/></linearGradient><linearGradient id="Áåçûìÿííûé_ãðàäèåíò_34" x1="-679.81" y1="316.62" x2="-679.81" y2="302.7" gradientTransform="matrix(1, 0, 0, -1, 752.68, 619.32)" gradientUnits="userSpaceOnUse"><stop offset="0" stop-color="#212121"/><stop offset="0.89" stop-color="#3d3d3d"/><stop offset="0.94" stop-color="#878787"/><stop offset="1" stop-color="#3d3d3d"/></linearGradient><linearGradient id="Áåçûìÿííûé_ãðàäèåíò_45" x1="-679.81" y1="318.83" x2="-679.81" y2="316.62" gradientTransform="matrix(-1, 0, 0, 1, -606.95, 0)" gradientUnits="userSpaceOnUse"><stop offset="0" stop-color="#3d3d3d"/><stop offset="0.19" stop-color="#878787"/><stop offset="0.48" stop-color="#3d3d3d"/><stop offset="1" stop-color="#212121"/></linearGradient><linearGradient id="Áåçûìÿííûé_ãðàäèåíò_44" x1="-691.4" y1="318.83" x2="-691.4" y2="315.77" gradientTransform="matrix(1, 0, 0, -1, 775.86, 634.61)" gradientUnits="userSpaceOnUse"><stop offset="0" stop-color="#212121"/><stop offset="0.52" stop-color="#3d3d3d"/><stop offset="0.81" stop-color="#878787"/><stop offset="1" stop-color="#3d3d3d"/></linearGradient><linearGradient id="Áåçûìÿííûé_ãðàäèåíò_44-2" x1="-668.22" y1="318.83" x2="-668.22" y2="315.77" gradientTransform="matrix(1, 0, 0, -1, 729.5, 634.61)" xlink:href="#Áåçûìÿííûé_ãðàäèåíò_44"/><linearGradient id="Áåçûìÿííûé_ãðàäèåíò_34-2" x1="-828.64" y1="316.62" x2="-828.64" y2="302.7" gradientTransform="matrix(1, 0, 0, -1, 1050.33, 619.32)" xlink:href="#Áåçûìÿííûé_ãðàäèåíò_34"/><linearGradient id="Áåçûìÿííûé_ãðàäèåíò_45-2" x1="-828.64" y1="318.83" x2="-828.64" y2="316.62" xlink:href="#Áåçûìÿííûé_ãðàäèåíò_45"/><linearGradient id="Áåçûìÿííûé_ãðàäèåíò_44-3" x1="-840.23" y1="318.83" x2="-840.23" y2="315.77" gradientTransform="matrix(1, 0, 0, -1, 1073.51, 634.61)" xlink:href="#Áåçûìÿííûé_ãðàäèåíò_44"/><linearGradient id="Áåçûìÿííûé_ãðàäèåíò_44-4" x1="-817.05" y1="318.83" x2="-817.05" y2="315.77" gradientTransform="matrix(1, 0, 0, -1, 1027.15, 634.61)" xlink:href="#Áåçûìÿííûé_ãðàäèåíò_44"/></defs><title>port07</title><g class="cls-1"><g id="Layer_2" data-name="Layer 2"><g id="Layer_1-2" data-name="Layer 1"><g class="cls-2"><rect class="cls-3" x="14.62" y="319.83" width="277.4" height="177.77" rx="4.22"/></g><rect class="cls-4" y="304.77" width="293.94" height="194.76" transform="translate(293.94 804.3) rotate(180)"/><g class="cls-2"><rect class="cls-5" x="57.95" y="304.79" width="32.91" height="17.33" rx="4.07"/><rect class="cls-6" x="57.99" y="304.82" width="32.76" height="17.17" rx="3.97"/><rect class="cls-7" x="58.02" y="304.86" width="32.61" height="17.01" rx="3.87"/><rect class="cls-8" x="58.06" y="304.9" width="32.46" height="16.84" rx="3.76"/><rect class="cls-9" x="58.1" y="304.94" width="32.31" height="16.68" rx="3.66"/><rect class="cls-10" x="58.14" y="304.98" width="32.16" height="16.52" rx="3.56"/><rect class="cls-11" x="58.18" y="305.02" width="32.01" height="16.36" rx="3.45"/><rect class="cls-12" x="58.21" y="305.06" width="31.86" height="16.2" rx="3.35"/><rect class="cls-13" x="58.25" y="305.1" width="31.71" height="16.04" rx="3.24"/><rect class="cls-14" x="58.29" y="305.14" width="31.56" height="15.88" rx="3.14"/><rect class="cls-15" x="58.33" y="305.18" width="31.41" height="15.72" rx="3.04"/><rect class="cls-16" x="58.37" y="305.22" width="31.26" height="15.55" rx="2.93"/><rect class="cls-17" x="58.4" y="305.26" width="31.11" height="15.39" rx="2.83"/><rect class="cls-18" x="58.44" y="305.3" width="30.96" height="15.23" rx="2.73"/><rect class="cls-19" x="58.48" y="305.34" width="30.81" height="15.07" rx="2.62"/><rect class="cls-20" x="58.52" y="305.38" width="30.66" height="14.91" rx="2.52"/><rect class="cls-21" x="58.56" y="305.41" width="30.51" height="14.75" rx="2.42"/><rect class="cls-22" x="58.59" y="305.45" width="30.36" height="14.59" rx="2.31"/><rect class="cls-23" x="58.63" y="305.49" width="30.21" height="14.42" rx="2.21"/><rect class="cls-24" x="58.67" y="305.53" width="30.06" height="14.26" rx="2.1"/><rect class="cls-25" x="58.71" y="305.57" width="29.91" height="14.1" rx="2"/><rect class="cls-26" x="58.75" y="305.61" width="29.76" height="13.94" rx="1.9"/><rect class="cls-27" x="58.78" y="305.65" width="29.61" height="13.78" rx="1.79"/><rect class="cls-28" x="58.82" y="305.69" width="29.46" height="13.62" rx="1.69"/><rect class="cls-29" x="58.86" y="305.73" width="29.31" height="13.46" rx="1.59"/><rect class="cls-30" x="58.9" y="305.77" width="29.16" height="13.29" rx="1.48"/><rect class="cls-31" x="58.94" y="305.81" width="29.01" height="13.13" rx="1.38"/><rect class="cls-32" x="58.97" y="305.85" width="28.86" height="12.97" rx="1.27"/><rect class="cls-33" x="59.01" y="305.89" width="28.71" height="12.81" rx="1.17"/><rect class="cls-34" x="59.05" y="305.93" width="28.56" height="12.65" rx="1.07"/><rect class="cls-35" x="59.09" y="305.96" width="28.41" height="12.49" rx="0.96"/><rect class="cls-36" x="59.13" y="306" width="28.26" height="12.33" rx="0.86"/></g><rect class="cls-37" x="57.75" y="302.7" width="30.22" height="13.92" transform="translate(145.73 619.32) rotate(180)"/><polygon class="cls-38" points="68.73 318.83 76.99 318.83 78.83 316.62 66.9 316.62 68.73 318.83"/><path class="cls-39" d="M60.81,317.61h4.31a.62.62,0,0,0,.59-.42c.18-.59,4.53-14.47,4.53-23.31,0-1.43-1.17-2.37-2.2-3.2-.87-.71-1.69-1.37-1.69-2.16,0-2.16,2.92-3.93,6.51-3.93s6.52,1.77,6.52,3.93c0,.79-.82,1.45-1.7,2.16-1,.83-2.2,1.77-2.2,3.2,0,8.84,4.36,22.72,4.54,23.31a.61.61,0,0,0,.58.42h3.85v-1.22H81.06c-.75-2.44-4.35-14.71-4.35-22.51,0-.84.84-1.53,1.74-2.25s2.15-1.74,2.15-3.11c0-2.89-3.4-5.15-7.74-5.15s-7.74,2.26-7.74,5.15c0,1.37,1.15,2.29,2.15,3.11S69,293,69,293.88c0,7.8-3.61,20.07-4.35,22.51H60.81Z"/><path class="cls-40" d="M64.76,316.51l0-.08c.73-2.4,4.35-14.73,4.35-22.55a1.49,1.49,0,0,0-.13-.59,1.71,1.71,0,0,1,.39,1c0,7.83-3.63,20.16-4.36,22.55l0,.09H61.19v.54h-.26v-1Z"/><path class="cls-40" d="M68.22,291.21a5.38,5.38,0,0,1-1.62-1.72A7.76,7.76,0,0,0,68,290.77a6.54,6.54,0,0,1,1.89,2A8,8,0,0,0,68.22,291.21Z"/><path class="cls-40" d="M73.12,283.93c-4.27,0-7.62,2.21-7.62,5a2.42,2.42,0,0,0,.24,1,2.49,2.49,0,0,1-.5-1.45c0-2.82,3.35-5,7.62-5,3.39,0,6.2,1.4,7.21,3.38C78.89,285.12,76.26,283.93,73.12,283.93Z"/><path class="cls-40" d="M77.76,290.77c.9-.72,1.74-1.4,1.74-2.25a2.6,2.6,0,0,0-.28-1.15,2.72,2.72,0,0,1,.54,1.59c0,.84-.85,1.53-1.74,2.25s-2.16,1.74-2.16,3.1c0,8.42,4,21.4,4.48,23.1a.47.47,0,0,1-.2-.26c-.19-.59-4.53-14.45-4.53-23.27C75.61,292.51,76.75,291.59,77.76,290.77Z"/><path class="cls-40" d="M81.22,317l0-.09c0-.1-.06-.22-.1-.35h3.24V317Z"/><rect class="cls-41" x="80.93" y="315.77" width="7.04" height="3.06" transform="translate(168.91 634.61) rotate(180)"/><rect class="cls-42" x="57.75" y="315.77" width="7.04" height="3.06" transform="translate(122.55 634.61) rotate(180)"/><path class="cls-43" d="M73.82,0V284.59a1,1,0,1,1-1.92,0V0Z"/><g class="cls-2"><rect class="cls-5" x="206.78" y="304.79" width="32.91" height="17.33" rx="4.07"/><rect class="cls-6" x="206.81" y="304.82" width="32.76" height="17.17" rx="3.97"/><rect class="cls-7" x="206.85" y="304.86" width="32.61" height="17.01" rx="3.87"/><rect class="cls-8" x="206.89" y="304.9" width="32.46" height="16.84" rx="3.76"/><rect class="cls-9" x="206.93" y="304.94" width="32.31" height="16.68" rx="3.66"/><rect class="cls-10" x="206.97" y="304.98" width="32.16" height="16.52" rx="3.56"/><rect class="cls-11" x="207" y="305.02" width="32.01" height="16.36" rx="3.45"/><rect class="cls-12" x="207.04" y="305.06" width="31.86" height="16.2" rx="3.35"/><rect class="cls-13" x="207.08" y="305.1" width="31.71" height="16.04" rx="3.24"/><rect class="cls-14" x="207.12" y="305.14" width="31.56" height="15.88" rx="3.14"/><rect class="cls-15" x="207.16" y="305.18" width="31.41" height="15.72" rx="3.04"/><rect class="cls-16" x="207.19" y="305.22" width="31.26" height="15.55" rx="2.93"/><rect class="cls-17" x="207.23" y="305.26" width="31.11" height="15.39" rx="2.83"/><rect class="cls-18" x="207.27" y="305.3" width="30.96" height="15.23" rx="2.73"/><rect class="cls-19" x="207.31" y="305.34" width="30.81" height="15.07" rx="2.62"/><rect class="cls-20" x="207.35" y="305.38" width="30.66" height="14.91" rx="2.52"/><rect class="cls-21" x="207.38" y="305.41" width="30.51" height="14.75" rx="2.42"/><rect class="cls-22" x="207.42" y="305.45" width="30.36" height="14.59" rx="2.31"/><rect class="cls-23" x="207.46" y="305.49" width="30.21" height="14.42" rx="2.21"/><rect class="cls-24" x="207.5" y="305.53" width="30.06" height="14.26" rx="2.1"/><rect class="cls-25" x="207.54" y="305.57" width="29.91" height="14.1" rx="2"/><rect class="cls-26" x="207.57" y="305.61" width="29.76" height="13.94" rx="1.9"/><rect class="cls-27" x="207.61" y="305.65" width="29.61" height="13.78" rx="1.79"/><rect class="cls-28" x="207.65" y="305.69" width="29.46" height="13.62" rx="1.69"/><rect class="cls-29" x="207.69" y="305.73" width="29.31" height="13.46" rx="1.59"/><rect class="cls-30" x="207.73" y="305.77" width="29.16" height="13.29" rx="1.48"/><rect class="cls-31" x="207.76" y="305.81" width="29.01" height="13.13" rx="1.38"/><rect class="cls-32" x="207.8" y="305.85" width="28.86" height="12.97" rx="1.27"/><rect class="cls-33" x="207.84" y="305.89" width="28.71" height="12.81" rx="1.17"/><rect class="cls-34" x="207.88" y="305.93" width="28.56" height="12.65" rx="1.07"/><rect class="cls-35" x="207.92" y="305.96" width="28.41" height="12.49" rx="0.96"/><rect class="cls-36" x="207.95" y="306" width="28.26" height="12.33" rx="0.86"/></g><rect class="cls-44" x="206.58" y="302.7" width="30.22" height="13.92" transform="translate(443.38 619.32) rotate(180)"/><polygon class="cls-45" points="217.56 318.83 225.82 318.83 227.66 316.62 215.73 316.62 217.56 318.83"/><path class="cls-39" d="M209.64,317.61H214a.6.6,0,0,0,.58-.42c.19-.59,4.54-14.47,4.54-23.31,0-1.43-1.17-2.37-2.2-3.2-.87-.71-1.7-1.37-1.7-2.16,0-2.16,2.93-3.93,6.52-3.93s6.52,1.77,6.52,3.93c0,.79-.83,1.45-1.7,2.16-1,.83-2.2,1.77-2.2,3.2,0,8.84,4.35,22.72,4.54,23.31a.61.61,0,0,0,.58.42h3.85v-1.22h-3.4c-.74-2.44-4.35-14.71-4.35-22.51,0-.84.85-1.53,1.75-2.25s2.15-1.74,2.15-3.11c0-2.89-3.4-5.15-7.74-5.15s-7.74,2.26-7.74,5.15c0,1.37,1.14,2.29,2.15,3.11s1.75,1.41,1.75,2.25c0,7.8-3.61,20.07-4.35,22.51h-3.86Z"/><path class="cls-40" d="M213.59,316.51l0-.08c.72-2.4,4.35-14.73,4.35-22.55a1.49,1.49,0,0,0-.13-.59,1.71,1.71,0,0,1,.39,1c0,7.83-3.63,20.16-4.36,22.55l0,.09H210v.54h-.26v-1Z"/><path class="cls-40" d="M217.05,291.21a5.38,5.38,0,0,1-1.62-1.72,8,8,0,0,0,1.36,1.28,6.46,6.46,0,0,1,1.9,2A8.3,8.3,0,0,0,217.05,291.21Z"/><path class="cls-40" d="M222,283.93c-4.27,0-7.62,2.21-7.62,5a2.28,2.28,0,0,0,.24,1,2.49,2.49,0,0,1-.5-1.45c0-2.82,3.35-5,7.62-5,3.39,0,6.19,1.4,7.21,3.38C227.72,285.12,225.09,283.93,222,283.93Z"/><path class="cls-40" d="M226.59,290.77c.89-.72,1.74-1.4,1.74-2.25a2.6,2.6,0,0,0-.28-1.15,2.72,2.72,0,0,1,.54,1.59c0,.84-.85,1.53-1.74,2.25s-2.16,1.74-2.16,3.1c0,8.42,3.95,21.4,4.48,23.1a.43.43,0,0,1-.2-.26c-.19-.59-4.54-14.45-4.54-23.27C224.43,292.51,225.58,291.59,226.59,290.77Z"/><path class="cls-40" d="M230.05,317l0-.09c0-.1-.06-.22-.1-.35h3.24V317Z"/><rect class="cls-46" x="229.76" y="315.77" width="7.04" height="3.06" transform="translate(466.56 634.61) rotate(180)"/><rect class="cls-47" x="206.58" y="315.77" width="7.04" height="3.06" transform="translate(420.2 634.61) rotate(180)"/><path class="cls-43" d="M222.65,0V284.59a1,1,0,1,1-1.92,0V0Z"/></g></g></g></svg>