<svg xmlns="http://www.w3.org/2000/svg" xmlns:xlink="http://www.w3.org/1999/xlink" viewBox="0 0 266.48 746.7"><defs><style>.cls-1{isolation:isolate;}.cls-2{mix-blend-mode:multiply;}.cls-3{fill:#ababab;}.cls-4{fill:url(#Áåçûìÿííûé_ãðàäèåíò_19);}.cls-5{fill:#fff;opacity:0;}.cls-6{fill:#fbfbfb;opacity:0.03;}.cls-7{fill:#f7f7f7;opacity:0.06;}.cls-8{fill:#f3f3f3;opacity:0.1;}.cls-9{fill:#efefef;opacity:0.13;}.cls-10{fill:#ebebeb;opacity:0.16;}.cls-11{fill:#e6e6e6;opacity:0.19;}.cls-12{fill:#e2e2e2;opacity:0.23;}.cls-13{fill:#dedede;opacity:0.26;}.cls-14{fill:#dadada;opacity:0.29;}.cls-15{fill:#d6d6d6;opacity:0.32;}.cls-16{fill:#d2d2d2;opacity:0.35;}.cls-17{fill:#cecece;opacity:0.39;}.cls-18{fill:#cacaca;opacity:0.42;}.cls-19{fill:#c6c6c6;opacity:0.45;}.cls-20{fill:#c2c2c2;opacity:0.48;}.cls-21{fill:#bdbdbd;opacity:0.52;}.cls-22{fill:#b9b9b9;opacity:0.55;}.cls-23{fill:#b5b5b5;opacity:0.58;}.cls-24{fill:#b1b1b1;opacity:0.61;}.cls-25{fill:#adadad;opacity:0.65;}.cls-26{fill:#a9a9a9;opacity:0.68;}.cls-27{fill:#a5a5a5;opacity:0.71;}.cls-28{fill:#a1a1a1;opacity:0.74;}.cls-29{fill:#9d9d9d;opacity:0.77;}.cls-30{fill:#999;opacity:0.81;}.cls-31{fill:#949494;opacity:0.84;}.cls-32{fill:#909090;opacity:0.87;}.cls-33{fill:#8c8c8c;opacity:0.9;}.cls-34{fill:#888;opacity:0.94;}.cls-35{fill:#848484;opacity:0.97;}.cls-36{fill:gray;}.cls-37{fill:url(#Áåçûìÿííûé_ãðàäèåíò_34);}.cls-38{fill:url(#Áåçûìÿííûé_ãðàäèåíò_45);}.cls-39{fill:#9e9e9e;}.cls-40{fill:#d9d9d9;}.cls-41{fill:url(#Áåçûìÿííûé_ãðàäèåíò_44);}.cls-42{fill:url(#Áåçûìÿííûé_ãðàäèåíò_44-2);}.cls-43{fill:#828282;}.cls-44{fill:url(#Áåçûìÿííûé_ãðàäèåíò_34-2);}.cls-45{fill:url(#Áåçûìÿííûé_ãðàäèåíò_45-2);}.cls-46{fill:url(#Áåçûìÿííûé_ãðàäèåíò_44-3);}.cls-47{fill:url(#Áåçûìÿííûé_ãðàäèåíò_44-4);}</style><linearGradient id="Áåçûìÿííûé_ãðàäèåíò_19" x1="-152.28" y1="472.22" x2="-424.1" y2="744.04" gradientTransform="matrix(1, 0, 0, -1, 421.43, 1216.26)" gradientUnits="userSpaceOnUse"><stop offset="0" stop-color="#fafafa"/><stop offset="1" stop-color="#ededed"/></linearGradient><linearGradient id="Áåçûìÿííûé_ãðàäèåíò_34" x1="-227.81" y1="481.41" x2="-227.81" y2="467.48" gradientTransform="matrix(1, 0, 0, -1, 300.67, 948.89)" gradientUnits="userSpaceOnUse"><stop offset="0" stop-color="#212121"/><stop offset="0.89" stop-color="#3d3d3d"/><stop offset="0.94" stop-color="#878787"/><stop offset="1" stop-color="#3d3d3d"/></linearGradient><linearGradient id="Áåçûìÿííûé_ãðàäèåíò_45" x1="-227.81" y1="483.61" x2="-227.81" y2="481.41" gradientTransform="matrix(-1, 0, 0, 1, -154.95, 0)" gradientUnits="userSpaceOnUse"><stop offset="0" stop-color="#3d3d3d"/><stop offset="0.19" stop-color="#878787"/><stop offset="0.48" stop-color="#3d3d3d"/><stop offset="1" stop-color="#212121"/></linearGradient><linearGradient id="Áåçûìÿííûé_ãðàäèåíò_44" x1="-239.4" y1="483.61" x2="-239.4" y2="480.56" gradientTransform="matrix(1, 0, 0, -1, 323.86, 964.17)" gradientUnits="userSpaceOnUse"><stop offset="0" stop-color="#212121"/><stop offset="0.52" stop-color="#3d3d3d"/><stop offset="0.81" stop-color="#878787"/><stop offset="1" stop-color="#3d3d3d"/></linearGradient><linearGradient id="Áåçûìÿííûé_ãðàäèåíò_44-2" x1="-216.22" y1="483.61" x2="-216.22" y2="480.56" gradientTransform="matrix(1, 0, 0, -1, 277.49, 964.17)" xlink:href="#Áåçûìÿííûé_ãðàäèåíò_44"/><linearGradient id="Áåçûìÿííûé_ãðàäèåíò_34-2" x1="-349.18" y1="481.41" x2="-349.18" y2="467.48" gradientTransform="matrix(1, 0, 0, -1, 543.4, 948.89)" xlink:href="#Áåçûìÿííûé_ãðàäèåíò_34"/><linearGradient id="Áåçûìÿííûé_ãðàäèåíò_45-2" x1="-349.18" y1="483.61" x2="-349.18" y2="481.41" xlink:href="#Áåçûìÿííûé_ãðàäèåíò_45"/><linearGradient id="Áåçûìÿííûé_ãðàäèåíò_44-3" x1="-360.77" y1="483.61" x2="-360.77" y2="480.56" gradientTransform="matrix(1, 0, 0, -1, 566.58, 964.17)" xlink:href="#Áåçûìÿííûé_ãðàäèåíò_44"/><linearGradient id="Áåçûìÿííûé_ãðàäèåíò_44-4" x1="-337.59" y1="483.61" x2="-337.59" y2="480.56" gradientTransform="matrix(1, 0, 0, -1, 520.22, 964.17)" xlink:href="#Áåçûìÿííûé_ãðàäèåíò_44"/></defs><title>port06</title><g class="cls-1"><g id="Layer_2" data-name="Layer 2"><g id="Layer_1-2" data-name="Layer 1"><g class="cls-2"><rect class="cls-3" x="14.62" y="484.62" width="249.93" height="260.17" rx="4.22"/></g><rect class="cls-4" y="469.55" width="266.48" height="277.15" transform="translate(266.48 1216.26) rotate(180)"/><g class="cls-2"><rect class="cls-5" x="57.95" y="469.57" width="32.91" height="17.33" rx="4.07"/><rect class="cls-6" x="57.99" y="469.61" width="32.76" height="17.17" rx="3.97"/><rect class="cls-7" x="58.02" y="469.65" width="32.61" height="17.01" rx="3.87"/><rect class="cls-8" x="58.06" y="469.69" width="32.46" height="16.84" rx="3.76"/><rect class="cls-9" x="58.1" y="469.73" width="32.31" height="16.68" rx="3.66"/><rect class="cls-10" x="58.14" y="469.77" width="32.16" height="16.52" rx="3.56"/><rect class="cls-11" x="58.18" y="469.8" width="32.01" height="16.36" rx="3.45"/><rect class="cls-12" x="58.21" y="469.84" width="31.86" height="16.2" rx="3.35"/><rect class="cls-13" x="58.25" y="469.88" width="31.71" height="16.04" rx="3.24"/><rect class="cls-14" x="58.29" y="469.92" width="31.56" height="15.88" rx="3.14"/><rect class="cls-15" x="58.33" y="469.96" width="31.41" height="15.72" rx="3.04"/><rect class="cls-16" x="58.37" y="470" width="31.26" height="15.55" rx="2.93"/><rect class="cls-17" x="58.4" y="470.04" width="31.11" height="15.39" rx="2.83"/><rect class="cls-18" x="58.44" y="470.08" width="30.96" height="15.23" rx="2.73"/><rect class="cls-19" x="58.48" y="470.12" width="30.81" height="15.07" rx="2.62"/><rect class="cls-20" x="58.52" y="470.16" width="30.66" height="14.91" rx="2.52"/><rect class="cls-21" x="58.56" y="470.2" width="30.51" height="14.75" rx="2.42"/><rect class="cls-22" x="58.59" y="470.24" width="30.36" height="14.59" rx="2.31"/><rect class="cls-23" x="58.63" y="470.28" width="30.21" height="14.42" rx="2.21"/><rect class="cls-24" x="58.67" y="470.32" width="30.06" height="14.26" rx="2.1"/><rect class="cls-25" x="58.71" y="470.35" width="29.91" height="14.1" rx="2"/><rect class="cls-26" x="58.75" y="470.39" width="29.76" height="13.94" rx="1.9"/><rect class="cls-27" x="58.78" y="470.43" width="29.61" height="13.78" rx="1.79"/><rect class="cls-28" x="58.82" y="470.47" width="29.46" height="13.62" rx="1.69"/><rect class="cls-29" x="58.86" y="470.51" width="29.31" height="13.46" rx="1.59"/><rect class="cls-30" x="58.9" y="470.55" width="29.16" height="13.29" rx="1.48"/><rect class="cls-31" x="58.94" y="470.59" width="29.01" height="13.13" rx="1.38"/><rect class="cls-32" x="58.97" y="470.63" width="28.86" height="12.97" rx="1.27"/><rect class="cls-33" x="59.01" y="470.67" width="28.71" height="12.81" rx="1.17"/><rect class="cls-34" x="59.05" y="470.71" width="28.56" height="12.65" rx="1.07"/><rect class="cls-35" x="59.09" y="470.75" width="28.41" height="12.49" rx="0.96"/><rect class="cls-36" x="59.13" y="470.79" width="28.26" height="12.33" rx="0.86"/></g><rect class="cls-37" x="57.75" y="467.48" width="30.22" height="13.92" transform="translate(145.73 948.89) rotate(180)"/><polygon class="cls-38" points="68.73 483.62 76.99 483.62 78.83 481.41 66.9 481.41 68.73 483.62"/><path class="cls-39" d="M60.81,482.4h4.31a.62.62,0,0,0,.59-.43c.18-.59,4.53-14.47,4.53-23.31,0-1.42-1.17-2.37-2.2-3.2-.87-.7-1.69-1.37-1.69-2.15,0-2.17,2.92-3.93,6.51-3.93s6.52,1.76,6.52,3.93c0,.78-.82,1.45-1.7,2.15-1,.83-2.2,1.78-2.2,3.2,0,8.84,4.36,22.72,4.54,23.31a.62.62,0,0,0,.58.43h3.85v-1.23H81.06c-.75-2.43-4.35-14.71-4.35-22.51,0-.84.84-1.52,1.74-2.25s2.15-1.74,2.15-3.1c0-2.89-3.4-5.16-7.74-5.16s-7.74,2.27-7.74,5.16c0,1.36,1.15,2.29,2.15,3.1S69,457.82,69,458.66c0,7.8-3.61,20.08-4.35,22.51H60.81Z"/><path class="cls-40" d="M64.76,481.3l0-.09c.73-2.39,4.35-14.72,4.35-22.55a1.44,1.44,0,0,0-.13-.58,1.69,1.69,0,0,1,.39,1c0,7.82-3.63,20.15-4.36,22.55l0,.08H61.19v.54h-.26v-1Z"/><path class="cls-40" d="M68.22,456a5.28,5.28,0,0,1-1.62-1.72A8.18,8.18,0,0,0,68,455.56a6.51,6.51,0,0,1,1.89,2A8.3,8.3,0,0,0,68.22,456Z"/><path class="cls-40" d="M73.12,448.71c-4.27,0-7.62,2.21-7.62,5a2.42,2.42,0,0,0,.24,1,2.56,2.56,0,0,1-.5-1.44c0-2.82,3.35-5,7.62-5,3.39,0,6.2,1.39,7.21,3.38C78.89,449.91,76.26,448.71,73.12,448.71Z"/><path class="cls-40" d="M77.76,455.56c.9-.73,1.74-1.41,1.74-2.25a2.64,2.64,0,0,0-.28-1.16,2.72,2.72,0,0,1,.54,1.59c0,.84-.85,1.53-1.74,2.25s-2.16,1.74-2.16,3.11c0,8.41,4,21.39,4.48,23.09a.47.47,0,0,1-.2-.26c-.19-.58-4.53-14.44-4.53-23.27C75.61,457.3,76.75,456.37,77.76,455.56Z"/><path class="cls-40" d="M81.22,481.73l0-.08c0-.1-.06-.22-.1-.35h3.24v.43Z"/><rect class="cls-41" x="80.93" y="480.56" width="7.04" height="3.06" transform="translate(168.91 964.17) rotate(180)"/><rect class="cls-42" x="57.75" y="480.56" width="7.04" height="3.06" transform="translate(122.55 964.17) rotate(180)"/><path class="cls-43" d="M73.82,0V449.38a1,1,0,0,1-1.92,0V0Z"/><g class="cls-2"><rect class="cls-5" x="179.31" y="469.57" width="32.91" height="17.33" rx="4.07"/><rect class="cls-6" x="179.35" y="469.61" width="32.76" height="17.17" rx="3.97"/><rect class="cls-7" x="179.39" y="469.65" width="32.61" height="17.01" rx="3.87"/><rect class="cls-8" x="179.43" y="469.69" width="32.46" height="16.84" rx="3.76"/><rect class="cls-9" x="179.46" y="469.73" width="32.31" height="16.68" rx="3.66"/><rect class="cls-10" x="179.5" y="469.77" width="32.16" height="16.52" rx="3.56"/><rect class="cls-11" x="179.54" y="469.8" width="32.01" height="16.36" rx="3.45"/><rect class="cls-12" x="179.58" y="469.84" width="31.86" height="16.2" rx="3.35"/><rect class="cls-13" x="179.62" y="469.88" width="31.71" height="16.04" rx="3.24"/><rect class="cls-14" x="179.65" y="469.92" width="31.56" height="15.88" rx="3.14"/><rect class="cls-15" x="179.69" y="469.96" width="31.41" height="15.72" rx="3.04"/><rect class="cls-16" x="179.73" y="470" width="31.26" height="15.55" rx="2.93"/><rect class="cls-17" x="179.77" y="470.04" width="31.11" height="15.39" rx="2.83"/><rect class="cls-18" x="179.81" y="470.08" width="30.96" height="15.23" rx="2.73"/><rect class="cls-19" x="179.84" y="470.12" width="30.81" height="15.07" rx="2.62"/><rect class="cls-20" x="179.88" y="470.16" width="30.66" height="14.91" rx="2.52"/><rect class="cls-21" x="179.92" y="470.2" width="30.51" height="14.75" rx="2.42"/><rect class="cls-22" x="179.96" y="470.24" width="30.36" height="14.59" rx="2.31"/><rect class="cls-23" x="180" y="470.28" width="30.21" height="14.42" rx="2.21"/><rect class="cls-24" x="180.03" y="470.32" width="30.06" height="14.26" rx="2.1"/><rect class="cls-25" x="180.07" y="470.35" width="29.91" height="14.1" rx="2"/><rect class="cls-26" x="180.11" y="470.39" width="29.76" height="13.94" rx="1.9"/><rect class="cls-27" x="180.15" y="470.43" width="29.61" height="13.78" rx="1.79"/><rect class="cls-28" x="180.19" y="470.47" width="29.46" height="13.62" rx="1.69"/><rect class="cls-29" x="180.22" y="470.51" width="29.31" height="13.46" rx="1.59"/><rect class="cls-30" x="180.26" y="470.55" width="29.16" height="13.29" rx="1.48"/><rect class="cls-31" x="180.3" y="470.59" width="29.01" height="13.13" rx="1.38"/><rect class="cls-32" x="180.34" y="470.63" width="28.86" height="12.97" rx="1.27"/><rect class="cls-33" x="180.38" y="470.67" width="28.71" height="12.81" rx="1.17"/><rect class="cls-34" x="180.41" y="470.71" width="28.56" height="12.65" rx="1.07"/><rect class="cls-35" x="180.45" y="470.75" width="28.41" height="12.49" rx="0.96"/><rect class="cls-36" x="180.49" y="470.79" width="28.26" height="12.33" rx="0.86"/></g><rect class="cls-44" x="179.12" y="467.48" width="30.22" height="13.92" transform="translate(388.46 948.89) rotate(180)"/><polygon class="cls-45" points="190.1 483.62 198.36 483.62 200.19 481.41 188.26 481.41 190.1 483.62"/><path class="cls-39" d="M182.17,482.4h4.32a.62.62,0,0,0,.58-.43c.18-.59,4.54-14.47,4.54-23.31,0-1.42-1.17-2.37-2.2-3.2-.88-.7-1.7-1.37-1.7-2.15,0-2.17,2.92-3.93,6.52-3.93s6.52,1.76,6.52,3.93c0,.78-.83,1.45-1.7,2.15-1,.83-2.2,1.78-2.2,3.2,0,8.84,4.35,22.72,4.54,23.31a.61.61,0,0,0,.58.43h3.85v-1.23h-3.4c-.74-2.43-4.35-14.71-4.35-22.51,0-.84.85-1.52,1.75-2.25s2.15-1.74,2.15-3.1c0-2.89-3.4-5.16-7.74-5.16s-7.74,2.27-7.74,5.16c0,1.36,1.14,2.29,2.15,3.1s1.75,1.41,1.75,2.25c0,7.8-3.61,20.08-4.35,22.51h-3.87Z"/><path class="cls-40" d="M186.13,481.3l0-.09c.73-2.39,4.36-14.72,4.36-22.55a1.44,1.44,0,0,0-.13-.58,1.74,1.74,0,0,1,.38,1c0,7.82-3.62,20.15-4.35,22.55l0,.08h-3.83v.54h-.25v-1Z"/><path class="cls-40" d="M189.59,456a5.32,5.32,0,0,1-1.63-1.72,8.18,8.18,0,0,0,1.37,1.29,6.67,6.67,0,0,1,1.9,2A8.88,8.88,0,0,0,189.59,456Z"/><path class="cls-40" d="M194.48,448.71c-4.27,0-7.61,2.21-7.61,5a2.28,2.28,0,0,0,.24,1,2.48,2.48,0,0,1-.5-1.44c0-2.82,3.35-5,7.62-5,3.39,0,6.19,1.39,7.2,3.38C200.25,449.91,197.62,448.71,194.48,448.71Z"/><path class="cls-40" d="M199.12,455.56c.9-.73,1.75-1.41,1.75-2.25a2.64,2.64,0,0,0-.28-1.16,2.78,2.78,0,0,1,.53,1.59c0,.84-.84,1.53-1.74,2.25s-2.15,1.74-2.15,3.11c0,8.41,3.94,21.39,4.47,23.09a.52.52,0,0,1-.2-.26c-.18-.58-4.53-14.44-4.53-23.27C197,457.3,198.11,456.37,199.12,455.56Z"/><path class="cls-40" d="M202.59,481.73l0-.08-.11-.35h3.25v.43Z"/><rect class="cls-46" x="202.3" y="480.56" width="7.04" height="3.06" transform="translate(411.64 964.17) rotate(180)"/><rect class="cls-47" x="179.12" y="480.56" width="7.04" height="3.06" transform="translate(365.27 964.17) rotate(180)"/><path class="cls-43" d="M195.19,0V449.38a1,1,0,1,1-1.92,0V0Z"/></g></g></g></svg>