<svg xmlns="http://www.w3.org/2000/svg" xmlns:xlink="http://www.w3.org/1999/xlink" viewBox="0 0 321.41 636.85"><defs><style>.cls-1{isolation:isolate;}.cls-2{mix-blend-mode:multiply;}.cls-3{fill:#ababab;}.cls-4{fill:url(#Áåçûìÿííûé_ãðàäèåíò_19);}.cls-5{fill:#fff;opacity:0;}.cls-6{fill:#fbfbfb;opacity:0.03;}.cls-7{fill:#f7f7f7;opacity:0.06;}.cls-8{fill:#f3f3f3;opacity:0.1;}.cls-9{fill:#efefef;opacity:0.13;}.cls-10{fill:#ebebeb;opacity:0.16;}.cls-11{fill:#e6e6e6;opacity:0.19;}.cls-12{fill:#e2e2e2;opacity:0.23;}.cls-13{fill:#dedede;opacity:0.26;}.cls-14{fill:#dadada;opacity:0.29;}.cls-15{fill:#d6d6d6;opacity:0.32;}.cls-16{fill:#d2d2d2;opacity:0.35;}.cls-17{fill:#cecece;opacity:0.39;}.cls-18{fill:#cacaca;opacity:0.42;}.cls-19{fill:#c6c6c6;opacity:0.45;}.cls-20{fill:#c2c2c2;opacity:0.48;}.cls-21{fill:#bdbdbd;opacity:0.52;}.cls-22{fill:#b9b9b9;opacity:0.55;}.cls-23{fill:#b5b5b5;opacity:0.58;}.cls-24{fill:#b1b1b1;opacity:0.61;}.cls-25{fill:#adadad;opacity:0.65;}.cls-26{fill:#a9a9a9;opacity:0.68;}.cls-27{fill:#a5a5a5;opacity:0.71;}.cls-28{fill:#a1a1a1;opacity:0.74;}.cls-29{fill:#9d9d9d;opacity:0.77;}.cls-30{fill:#999;opacity:0.81;}.cls-31{fill:#949494;opacity:0.84;}.cls-32{fill:#909090;opacity:0.87;}.cls-33{fill:#8c8c8c;opacity:0.9;}.cls-34{fill:#888;opacity:0.94;}.cls-35{fill:#848484;opacity:0.97;}.cls-36{fill:gray;}.cls-37{fill:url(#Áåçûìÿííûé_ãðàäèåíò_34);}.cls-38{fill:url(#Áåçûìÿííûé_ãðàäèåíò_45);}.cls-39{fill:#9e9e9e;}.cls-40{fill:#d9d9d9;}.cls-41{fill:url(#Áåçûìÿííûé_ãðàäèåíò_44);}.cls-42{fill:url(#Áåçûìÿííûé_ãðàäèåíò_44-2);}.cls-43{fill:#828282;}.cls-44{fill:url(#Áåçûìÿííûé_ãðàäèåíò_34-2);}.cls-45{fill:url(#Áåçûìÿííûé_ãðàäèåíò_45-2);}.cls-46{fill:url(#Áåçûìÿííûé_ãðàäèåíò_44-3);}.cls-47{fill:url(#Áåçûìÿííûé_ãðàäèåíò_44-4);}</style><linearGradient id="Áåçûìÿííûé_ãðàäèåíò_19" x1="2227.48" y1="225.04" x2="1845.8" y2="606.72" gradientTransform="matrix(1, 0, 0, -1, -1875.94, 831.76)" gradientUnits="userSpaceOnUse"><stop offset="0" stop-color="#fafafa"/><stop offset="1" stop-color="#ededed"/></linearGradient><linearGradient id="Áåçûìÿííûé_ãðàäèåíò_34" x1="2124.48" y1="206.77" x2="2124.48" y2="192.84" gradientTransform="matrix(1, 0, 0, -1, -2051.62, 399.61)" gradientUnits="userSpaceOnUse"><stop offset="0" stop-color="#212121"/><stop offset="0.89" stop-color="#3d3d3d"/><stop offset="0.94" stop-color="#878787"/><stop offset="1" stop-color="#3d3d3d"/></linearGradient><linearGradient id="Áåçûìÿííûé_ãðàäèåíò_45" x1="2124.48" y1="208.98" x2="2124.48" y2="206.77" gradientTransform="matrix(-1, 0, 0, 1, 2197.34, 0)" gradientUnits="userSpaceOnUse"><stop offset="0" stop-color="#3d3d3d"/><stop offset="0.19" stop-color="#878787"/><stop offset="0.48" stop-color="#3d3d3d"/><stop offset="1" stop-color="#212121"/></linearGradient><linearGradient id="Áåçûìÿííûé_ãðàäèåíò_44" x1="2112.89" y1="208.98" x2="2112.89" y2="205.92" gradientTransform="matrix(1, 0, 0, -1, -2028.44, 414.9)" gradientUnits="userSpaceOnUse"><stop offset="0" stop-color="#212121"/><stop offset="0.52" stop-color="#3d3d3d"/><stop offset="0.81" stop-color="#878787"/><stop offset="1" stop-color="#3d3d3d"/></linearGradient><linearGradient id="Áåçûìÿííûé_ãðàäèåíò_44-2" x1="2136.07" y1="208.98" x2="2136.07" y2="205.92" gradientTransform="matrix(1, 0, 0, -1, -2074.8, 414.9)" xlink:href="#Áåçûìÿííûé_ãðàäèåíò_44"/><linearGradient id="Áåçûìÿííûé_ãðàäèåíò_34-2" x1="1948.19" y1="206.77" x2="1948.19" y2="192.84" gradientTransform="matrix(1, 0, 0, -1, -1699.03, 399.61)" xlink:href="#Áåçûìÿííûé_ãðàäèåíò_34"/><linearGradient id="Áåçûìÿííûé_ãðàäèåíò_45-2" x1="1948.19" y1="208.98" x2="1948.19" y2="206.77" xlink:href="#Áåçûìÿííûé_ãðàäèåíò_45"/><linearGradient id="Áåçûìÿííûé_ãðàäèåíò_44-3" x1="1936.6" y1="208.98" x2="1936.6" y2="205.92" gradientTransform="matrix(1, 0, 0, -1, -1675.85, 414.9)" xlink:href="#Áåçûìÿííûé_ãðàäèåíò_44"/><linearGradient id="Áåçûìÿííûé_ãðàäèåíò_44-4" x1="1959.78" y1="208.98" x2="1959.78" y2="205.92" gradientTransform="matrix(1, 0, 0, -1, -1722.21, 414.9)" xlink:href="#Áåçûìÿííûé_ãðàäèåíò_44"/></defs><title>port01</title><g class="cls-1"><g id="Layer_2" data-name="Layer 2"><g id="Layer_1-2" data-name="Layer 1"><g class="cls-2"><rect class="cls-3" x="14.62" y="209.98" width="304.86" height="424.95" rx="4.22"/></g><rect class="cls-4" y="194.91" width="321.41" height="441.94" transform="translate(321.41 831.76) rotate(180)"/><g class="cls-2"><rect class="cls-5" x="57.95" y="194.93" width="32.91" height="17.33" rx="4.07"/><rect class="cls-6" x="57.99" y="194.97" width="32.76" height="17.17" rx="3.97"/><rect class="cls-7" x="58.02" y="195.01" width="32.61" height="17.01" rx="3.87"/><rect class="cls-8" x="58.06" y="195.05" width="32.46" height="16.84" rx="3.76"/><rect class="cls-9" x="58.1" y="195.09" width="32.31" height="16.68" rx="3.66"/><rect class="cls-10" x="58.14" y="195.13" width="32.16" height="16.52" rx="3.56"/><rect class="cls-11" x="58.18" y="195.17" width="32.01" height="16.36" rx="3.45"/><rect class="cls-12" x="58.21" y="195.21" width="31.86" height="16.2" rx="3.35"/><rect class="cls-13" x="58.25" y="195.24" width="31.71" height="16.04" rx="3.24"/><rect class="cls-14" x="58.29" y="195.28" width="31.56" height="15.88" rx="3.14"/><rect class="cls-15" x="58.33" y="195.32" width="31.41" height="15.72" rx="3.04"/><rect class="cls-16" x="58.37" y="195.36" width="31.26" height="15.55" rx="2.93"/><rect class="cls-17" x="58.4" y="195.4" width="31.11" height="15.39" rx="2.83"/><rect class="cls-18" x="58.44" y="195.44" width="30.96" height="15.23" rx="2.73"/><rect class="cls-19" x="58.48" y="195.48" width="30.81" height="15.07" rx="2.62"/><rect class="cls-20" x="58.52" y="195.52" width="30.66" height="14.91" rx="2.52"/><rect class="cls-21" x="58.56" y="195.56" width="30.51" height="14.75" rx="2.42"/><rect class="cls-22" x="58.59" y="195.6" width="30.36" height="14.59" rx="2.31"/><rect class="cls-23" x="58.63" y="195.64" width="30.21" height="14.42" rx="2.21"/><rect class="cls-24" x="58.67" y="195.68" width="30.06" height="14.26" rx="2.1"/><rect class="cls-25" x="58.71" y="195.72" width="29.91" height="14.1" rx="2"/><rect class="cls-26" x="58.75" y="195.76" width="29.76" height="13.94" rx="1.9"/><rect class="cls-27" x="58.78" y="195.79" width="29.61" height="13.78" rx="1.79"/><rect class="cls-28" x="58.82" y="195.83" width="29.46" height="13.62" rx="1.69"/><rect class="cls-29" x="58.86" y="195.87" width="29.31" height="13.46" rx="1.59"/><rect class="cls-30" x="58.9" y="195.91" width="29.16" height="13.29" rx="1.48"/><rect class="cls-31" x="58.94" y="195.95" width="29.01" height="13.13" rx="1.38"/><rect class="cls-32" x="58.97" y="195.99" width="28.86" height="12.97" rx="1.27"/><rect class="cls-33" x="59.01" y="196.03" width="28.71" height="12.81" rx="1.17"/><rect class="cls-34" x="59.05" y="196.07" width="28.56" height="12.65" rx="1.07"/><rect class="cls-35" x="59.09" y="196.11" width="28.41" height="12.49" rx="0.96"/><rect class="cls-36" x="59.13" y="196.15" width="28.26" height="12.33" rx="0.86"/></g><rect class="cls-37" x="57.75" y="192.84" width="30.22" height="13.92" transform="translate(145.73 399.61) rotate(180)"/><polygon class="cls-38" points="68.73 208.98 76.99 208.98 78.83 206.77 66.9 206.77 68.73 208.98"/><path class="cls-39" d="M60.81,207.76h4.31a.62.62,0,0,0,.59-.43c.18-.59,4.53-14.47,4.53-23.31,0-1.42-1.17-2.37-2.2-3.2-.87-.7-1.69-1.37-1.69-2.15,0-2.17,2.92-3.93,6.51-3.93s6.52,1.76,6.52,3.93c0,.78-.82,1.45-1.7,2.15-1,.83-2.2,1.78-2.2,3.2,0,8.84,4.36,22.72,4.54,23.31a.62.62,0,0,0,.58.43h3.85v-1.23H81.06c-.75-2.43-4.35-14.71-4.35-22.51,0-.84.84-1.52,1.74-2.25s2.15-1.73,2.15-3.1c0-2.89-3.4-5.16-7.74-5.16s-7.74,2.27-7.74,5.16c0,1.37,1.15,2.29,2.15,3.1S69,183.18,69,184c0,7.8-3.61,20.08-4.35,22.51H60.81Z"/><path class="cls-40" d="M64.76,206.66l0-.09c.73-2.39,4.35-14.72,4.35-22.55a1.44,1.44,0,0,0-.13-.58,1.69,1.69,0,0,1,.39,1c0,7.82-3.63,20.15-4.36,22.55l0,.08H61.19v.54h-.26v-1Z"/><path class="cls-40" d="M68.22,181.35a5.26,5.26,0,0,1-1.62-1.71A8.15,8.15,0,0,0,68,180.92a6.51,6.51,0,0,1,1.89,2A8.3,8.3,0,0,0,68.22,181.35Z"/><path class="cls-40" d="M73.12,174.07c-4.27,0-7.62,2.21-7.62,5a2.41,2.41,0,0,0,.24,1,2.53,2.53,0,0,1-.5-1.44c0-2.82,3.35-5,7.62-5,3.39,0,6.2,1.39,7.21,3.38C78.89,175.27,76.26,174.07,73.12,174.07Z"/><path class="cls-40" d="M77.76,180.92c.9-.73,1.74-1.41,1.74-2.25a2.64,2.64,0,0,0-.28-1.16,2.73,2.73,0,0,1,.54,1.6c0,.84-.85,1.52-1.74,2.24s-2.16,1.74-2.16,3.11c0,8.41,4,21.39,4.48,23.09a.47.47,0,0,1-.2-.26c-.19-.58-4.53-14.44-4.53-23.27C75.61,182.66,76.75,181.73,77.76,180.92Z"/><path class="cls-40" d="M81.22,207.09l0-.08c0-.1-.06-.22-.1-.35h3.24v.43Z"/><rect class="cls-41" x="80.93" y="205.92" width="7.04" height="3.06" transform="translate(168.91 414.9) rotate(180)"/><rect class="cls-42" x="57.75" y="205.92" width="7.04" height="3.06" transform="translate(122.55 414.9) rotate(180)"/><path class="cls-43" d="M73.82,0V174.74a1,1,0,0,1-1.92,0V0Z"/><g class="cls-2"><rect class="cls-5" x="234.24" y="194.93" width="32.91" height="17.33" rx="4.07"/><rect class="cls-6" x="234.28" y="194.97" width="32.76" height="17.17" rx="3.97"/><rect class="cls-7" x="234.32" y="195.01" width="32.61" height="17.01" rx="3.87"/><rect class="cls-8" x="234.35" y="195.05" width="32.46" height="16.84" rx="3.76"/><rect class="cls-9" x="234.39" y="195.09" width="32.31" height="16.68" rx="3.66"/><rect class="cls-10" x="234.43" y="195.13" width="32.16" height="16.52" rx="3.56"/><rect class="cls-11" x="234.47" y="195.17" width="32.01" height="16.36" rx="3.45"/><rect class="cls-12" x="234.51" y="195.21" width="31.86" height="16.2" rx="3.35"/><rect class="cls-13" x="234.54" y="195.24" width="31.71" height="16.04" rx="3.24"/><rect class="cls-14" x="234.58" y="195.28" width="31.56" height="15.88" rx="3.14"/><rect class="cls-15" x="234.62" y="195.32" width="31.41" height="15.72" rx="3.04"/><rect class="cls-16" x="234.66" y="195.36" width="31.26" height="15.55" rx="2.93"/><rect class="cls-17" x="234.7" y="195.4" width="31.11" height="15.39" rx="2.83"/><rect class="cls-18" x="234.73" y="195.44" width="30.96" height="15.23" rx="2.73"/><rect class="cls-19" x="234.77" y="195.48" width="30.81" height="15.07" rx="2.62"/><rect class="cls-20" x="234.81" y="195.52" width="30.66" height="14.91" rx="2.52"/><rect class="cls-21" x="234.85" y="195.56" width="30.51" height="14.75" rx="2.42"/><rect class="cls-22" x="234.89" y="195.6" width="30.36" height="14.59" rx="2.31"/><rect class="cls-23" x="234.92" y="195.64" width="30.21" height="14.42" rx="2.21"/><rect class="cls-24" x="234.96" y="195.68" width="30.06" height="14.26" rx="2.1"/><rect class="cls-25" x="235" y="195.72" width="29.91" height="14.1" rx="2"/><rect class="cls-26" x="235.04" y="195.76" width="29.76" height="13.94" rx="1.9"/><rect class="cls-27" x="235.08" y="195.79" width="29.61" height="13.78" rx="1.79"/><rect class="cls-28" x="235.11" y="195.83" width="29.46" height="13.62" rx="1.69"/><rect class="cls-29" x="235.15" y="195.87" width="29.31" height="13.46" rx="1.59"/><rect class="cls-30" x="235.19" y="195.91" width="29.16" height="13.29" rx="1.48"/><rect class="cls-31" x="235.23" y="195.95" width="29.01" height="13.13" rx="1.38"/><rect class="cls-32" x="235.27" y="195.99" width="28.86" height="12.97" rx="1.27"/><rect class="cls-33" x="235.3" y="196.03" width="28.71" height="12.81" rx="1.17"/><rect class="cls-34" x="235.34" y="196.07" width="28.56" height="12.65" rx="1.07"/><rect class="cls-35" x="235.38" y="196.11" width="28.41" height="12.49" rx="0.96"/><rect class="cls-36" x="235.42" y="196.15" width="28.26" height="12.33" rx="0.86"/></g><rect class="cls-44" x="234.05" y="192.84" width="30.22" height="13.92" transform="translate(498.31 399.61) rotate(180)"/><polygon class="cls-45" points="245.03 208.98 253.29 208.98 255.12 206.77 243.19 206.77 245.03 208.98"/><path class="cls-39" d="M237.1,207.76h4.31a.62.62,0,0,0,.59-.43c.18-.59,4.54-14.47,4.54-23.31,0-1.42-1.17-2.37-2.2-3.2-.88-.7-1.7-1.37-1.7-2.15,0-2.17,2.92-3.93,6.52-3.93s6.51,1.76,6.51,3.93c0,.78-.82,1.45-1.69,2.15-1,.83-2.21,1.78-2.21,3.2,0,8.84,4.36,22.72,4.54,23.31a.62.62,0,0,0,.59.43h3.85v-1.23h-3.4C256.61,204.1,253,191.82,253,184c0-.84.85-1.52,1.74-2.25s2.16-1.73,2.16-3.1c0-2.89-3.4-5.16-7.74-5.16s-7.75,2.27-7.75,5.16c0,1.37,1.15,2.29,2.16,3.1s1.74,1.41,1.74,2.25c0,7.8-3.61,20.08-4.35,22.51H237.1Z"/><path class="cls-40" d="M241.05,206.66l0-.09c.73-2.39,4.36-14.72,4.36-22.55a1.44,1.44,0,0,0-.13-.58,1.74,1.74,0,0,1,.38,1c0,7.82-3.63,20.15-4.35,22.55l0,.08h-3.83v.54h-.26v-1Z"/><path class="cls-40" d="M244.52,181.35a5.19,5.19,0,0,1-1.63-1.71,8.15,8.15,0,0,0,1.37,1.28,6.51,6.51,0,0,1,1.89,2A8.53,8.53,0,0,0,244.52,181.35Z"/><path class="cls-40" d="M249.41,174.07c-4.27,0-7.62,2.21-7.62,5a2.41,2.41,0,0,0,.24,1,2.52,2.52,0,0,1-.49-1.44c0-2.82,3.34-5,7.62-5,3.39,0,6.19,1.39,7.2,3.38C255.18,175.27,252.55,174.07,249.41,174.07Z"/><path class="cls-40" d="M254.05,180.92c.9-.73,1.75-1.41,1.75-2.25a2.64,2.64,0,0,0-.28-1.16,2.79,2.79,0,0,1,.53,1.6c0,.84-.84,1.52-1.74,2.24s-2.16,1.74-2.16,3.11c0,8.41,4,21.39,4.48,23.09a.47.47,0,0,1-.2-.26c-.19-.58-4.53-14.44-4.53-23.27C251.9,182.66,253,181.73,254.05,180.92Z"/><path class="cls-40" d="M257.51,207.09l0-.08-.11-.35h3.24v.43Z"/><rect class="cls-46" x="257.23" y="205.92" width="7.04" height="3.06" transform="translate(521.49 414.9) rotate(180)"/><rect class="cls-47" x="234.05" y="205.92" width="7.04" height="3.06" transform="translate(475.13 414.9) rotate(180)"/><path class="cls-43" d="M250.12,0V174.74a1,1,0,0,1-1.93,0V0Z"/></g></g></g></svg>